<svg viewBox="0 0 200 200" xmlns="http://www.w3.org/2000/svg">
  <!-- Background circle -->
  <circle cx="100" cy="100" r="90" fill="url(#backgroundGradient)" stroke="url(#borderGradient)" stroke-width="4"/>
  
  <!-- Gradient definitions -->
  <defs>
    <linearGradient id="backgroundGradient" x1="0%" y1="0%" x2="100%" y2="100%">
      <stop offset="0%" style="stop-color:#667eea;stop-opacity:1" />
      <stop offset="100%" style="stop-color:#764ba2;stop-opacity:1" />
    </linearGradient>
    
    <linearGradient id="borderGradient" x1="0%" y1="0%" x2="100%" y2="100%">
      <stop offset="0%" style="stop-color:#4facfe;stop-opacity:1" />
      <stop offset="100%" style="stop-color:#00f2fe;stop-opacity:1" />
    </linearGradient>
    
    <linearGradient id="arrowGradient" x1="0%" y1="0%" x2="100%" y2="100%">
      <stop offset="0%" style="stop-color:#ffffff;stop-opacity:1" />
      <stop offset="100%" style="stop-color:#e0e6ff;stop-opacity:1" />
    </linearGradient>
    
    <linearGradient id="pixelGradient" x1="0%" y1="0%" x2="100%" y2="100%">
      <stop offset="0%" style="stop-color:#ffffff;stop-opacity:0.9" />
      <stop offset="100%" style="stop-color:#ffffff;stop-opacity:0.6" />
    </linearGradient>
  </defs>
  
  <!-- Small pixelated square (low resolution) -->
  <g transform="translate(50, 80)">
    <rect x="0" y="0" width="6" height="6" fill="url(#pixelGradient)" opacity="0.8"/>
    <rect x="8" y="0" width="6" height="6" fill="url(#pixelGradient)" opacity="0.6"/>
    <rect x="16" y="0" width="6" height="6" fill="url(#pixelGradient)" opacity="0.7"/>
    <rect x="0" y="8" width="6" height="6" fill="url(#pixelGradient)" opacity="0.7"/>
    <rect x="8" y="8" width="6" height="6" fill="url(#pixelGradient)" opacity="0.9"/>
    <rect x="16" y="8" width="6" height="6" fill="url(#pixelGradient)" opacity="0.5"/>
    <rect x="0" y="16" width="6" height="6" fill="url(#pixelGradient)" opacity="0.6"/>
    <rect x="8" y="16" width="6" height="6" fill="url(#pixelGradient)" opacity="0.8"/>
    <rect x="16" y="16" width="6" height="6" fill="url(#pixelGradient)" opacity="0.7"/>
  </g>
  
  <!-- Upscaling arrow -->
  <path d="M 75 100 L 125 100 M 115 90 L 125 100 L 115 110" 
        stroke="url(#arrowGradient)" 
        stroke-width="4" 
        stroke-linecap="round" 
        stroke-linejoin="round" 
        fill="none"/>
  
  <!-- Large high-resolution square -->
  <g transform="translate(135, 65)">
    <!-- Main high-res square -->
    <rect x="0" y="0" width="30" height="30" fill="none" stroke="url(#pixelGradient)" stroke-width="2" opacity="0.9"/>
    
    <!-- Fine grid lines inside to show high resolution -->
    <line x1="6" y1="0" x2="6" y2="30" stroke="url(#pixelGradient)" stroke-width="0.5" opacity="0.6"/>
    <line x1="12" y1="0" x2="12" y2="30" stroke="url(#pixelGradient)" stroke-width="0.5" opacity="0.6"/>
    <line x1="18" y1="0" x2="18" y2="30" stroke="url(#pixelGradient)" stroke-width="0.5" opacity="0.6"/>
    <line x1="24" y1="0" x2="24" y2="30" stroke="url(#pixelGradient)" stroke-width="0.5" opacity="0.6"/>
    
    <line x1="0" y1="6" x2="30" y2="6" stroke="url(#pixelGradient)" stroke-width="0.5" opacity="0.6"/>
    <line x1="0" y1="12" x2="30" y2="12" stroke="url(#pixelGradient)" stroke-width="0.5" opacity="0.6"/>
    <line x1="0" y1="18" x2="30" y2="18" stroke="url(#pixelGradient)" stroke-width="0.5" opacity="0.6"/>
    <line x1="0" y1="24" x2="30" y2="24" stroke="url(#pixelGradient)" stroke-width="0.5" opacity="0.6"/>
    
    <!-- Small filled squares to show detail -->
    <rect x="3" y="3" width="3" height="3" fill="url(#pixelGradient)" opacity="0.8"/>
    <rect x="9" y="6" width="3" height="3" fill="url(#pixelGradient)" opacity="0.7"/>
    <rect x="15" y="9" width="3" height="3" fill="url(#pixelGradient)" opacity="0.9"/>
    <rect x="21" y="12" width="3" height="3" fill="url(#pixelGradient)" opacity="0.6"/>
    <rect x="6" y="18" width="3" height="3" fill="url(#pixelGradient)" opacity="0.8"/>
    <rect x="18" y="21" width="3" height="3" fill="url(#pixelGradient)" opacity="0.7"/>
  </g>
  
  <!-- Enhancement spark/star effect -->
  <g transform="translate(155, 55)">
    <path d="M 0 -8 L 2 -2 L 8 0 L 2 2 L 0 8 L -2 2 L -8 0 L -2 -2 Z" 
          fill="url(#arrowGradient)" 
          opacity="0.9"/>
  </g>
  
  <g transform="translate(145, 105)">
    <path d="M 0 -5 L 1.5 -1.5 L 5 0 L 1.5 1.5 L 0 5 L -1.5 1.5 L -5 0 L -1.5 -1.5 Z" 
          fill="url(#arrowGradient)" 
          opacity="0.7"/>
  </g>
</svg>
